<?xml version="1.0" encoding="UTF-8" standalone="no"?>
<!-- Created with Inkscape (http://www.inkscape.org/) -->
<svg
   xmlns:svg="http://www.w3.org/2000/svg"
   xmlns="http://www.w3.org/2000/svg"
   version="1.0"
   width="673.22833"
   height="532.91339"
   id="svg2">
  <defs
     id="defs4" />
  <g
     transform="translate(-457.91905,663.48011)"
     id="layer1">
    <g
       transform="translate(17.716541,17.728496)"
       id="g51244">
      <path
         d="M 780.47389,-443.25877 C 841.28029,-443.25877 890.58449,-492.55182 890.58449,-553.36944 C 890.58449,-614.17587 841.28029,-663.48011 780.47389,-663.48011 C 719.66751,-663.48011 670.36317,-614.17587 670.36317,-553.36944 C 670.36317,-492.55182 719.66751,-443.25877 780.47389,-443.25877"
         style="fill:#00acef;fill-rule:nonzero;stroke:none"
         id="path51164" />
      <path
         d="M 861.68819,-464.28765 C 840.70459,-441.53179 803.72639,-418.78722 756.25063,-418.78722 C 719.41917,-418.78722 687.71232,-433.09996 667.54134,-449.00422 C 547.3282,-436.40718 457.91905,-418.5163 457.91905,-418.5163 L 457.91905,-369.83291 L 1095.6805,-369.90064 L 1095.6805,-470.28134 C 1095.6805,-470.28134 986.40509,-470.94734 861.68819,-464.28765"
         style="fill:#00acef;fill-rule:nonzero;stroke:none"
         id="path51168" />
      <path
         d="M 533.68155,-227.49605 L 533.68155,-168.17964 L 457.91905,-168.17964 L 457.91905,-325.98054 L 533.68155,-325.98054 L 533.68155,-254.97014 L 534.12169,-254.97014 L 578.70779,-325.98054 L 669.56181,-325.98054 L 603.04389,-244.42753 L 665.79168,-168.17964 L 579.11416,-168.17964 L 534.20071,-227.49605 L 533.68155,-227.49605"
         style="fill:#0b325e;fill-rule:nonzero;stroke:none"
         id="path51172" />
      <path
         d="M 1095.7143,-174.69259 C 1077.846,-169.24072 1054.334,-166.02371 1033.3051,-166.02371 C 958.36669,-166.02371 903.31699,-187.3235 903.31699,-249.29242 C 903.31699,-305.29031 956.65089,-329.61512 1029.5802,-329.61512 C 1049.8415,-329.61512 1075.5885,-327.36888 1095.7143,-320.94624 L 1095.6918,-266.7092 C 1080.7696,-275.75058 1065.8473,-281.37187 1044.4798,-281.37187 C 1016.6672,-281.37187 988.87709,-267.69126 988.87709,-247.80248 C 988.87709,-227.87984 1016.543,-214.2331 1044.4798,-214.2331 C 1065.4974,-214.2331 1080.7696,-220.05756 1095.6918,-228.67001 L 1095.7143,-174.69259"
         style="fill:#0b325e;fill-rule:nonzero;stroke:none"
         id="path51176" />
      <path
         d="M 757.72939,-259.10139 L 795.47519,-259.10139 C 810.05869,-259.10139 815.75889,-265.00479 815.75889,-274.06875 C 815.75889,-284.46462 810.00229,-289.64566 796.52489,-289.64566 L 757.72939,-289.64566 L 757.72939,-259.10139 z M 757.72939,-200.25909 L 797.23599,-200.25909 C 812.04529,-200.25909 817.09089,-206.41082 817.09089,-215.4635 C 817.09089,-224.51617 811.98889,-231.01783 797.40529,-231.01783 L 757.72939,-231.01783 L 757.72939,-200.25909 z M 681.96687,-325.98054 L 835.11729,-325.98054 C 874.90599,-325.98054 887.94329,-310.51651 887.94329,-286.42874 C 887.94329,-259.46261 863.84419,-247.75733 839.10179,-246.42543 L 839.10179,-245.9739 C 864.52139,-243.99858 889.27519,-241.10892 889.27519,-209.28919 C 889.27519,-188.51994 876.22669,-168.17964 832.47589,-168.17964 L 681.96687,-168.17964 L 681.96687,-325.98054"
         style="fill:#0b325e;fill-rule:nonzero;stroke:none"
         id="path51180" />
    </g>
  </g>
</svg>
